<svg xmlns="http://www.w3.org/2000/svg" viewBox="0 0 100 100">
  <defs>
    <!-- Wood grain background -->
    <radialGradient id="wood" cx="40%" cy="35%" r="65%">
      <stop offset="0%"  stop-color="#a0622a"/>
      <stop offset="60%" stop-color="#7a4520"/>
      <stop offset="100%" stop-color="#4e2a0e"/>
    </radialGradient>
    <!-- Board outer glow -->
    <radialGradient id="boardShade" cx="50%" cy="40%" r="50%">
      <stop offset="0%"  stop-color="#111" stop-opacity="0"/>
      <stop offset="100%" stop-color="#000" stop-opacity="0.55"/>
    </radialGradient>
    <!-- Brass ring highlight -->
    <radialGradient id="brass" cx="45%" cy="35%" r="55%">
      <stop offset="0%"  stop-color="#f0c040"/>
      <stop offset="100%" stop-color="#8a6000"/>
    </radialGradient>
  </defs>

  <!-- Rounded square background — warm café brown -->
  <rect width="100" height="100" rx="18" fill="url(#wood)"/>
  <!-- Subtle wood grain lines -->
  <line x1="10" y1="0"  x2="8"  y2="100" stroke="#6b3a18" stroke-width="1.2" stroke-opacity="0.35"/>
  <line x1="30" y1="0"  x2="28" y2="100" stroke="#5a2e10" stroke-width="0.8" stroke-opacity="0.25"/>
  <line x1="55" y1="0"  x2="53" y2="100" stroke="#6b3a18" stroke-width="1.0" stroke-opacity="0.30"/>
  <line x1="75" y1="0"  x2="73" y2="100" stroke="#5a2e10" stroke-width="0.7" stroke-opacity="0.20"/>
  <line x1="92" y1="0"  x2="90" y2="100" stroke="#6b3a18" stroke-width="0.9" stroke-opacity="0.25"/>

  <!-- Brass mounting ring -->
  <circle cx="50" cy="52" r="43" fill="url(#brass)"/>
  <circle cx="50" cy="52" r="41" fill="#111"/>

  <!-- Dartboard segments: alternating black/cream and green/red -->
  <!-- Outer double ring + number segments as alternating wedges -->
  <!-- 20 segments, alternating colours. We use 10 pairs: black/cream, green/red. -->
  <!-- Each segment = 18°. We draw filled arcs using path. -->
  <!-- Colors: odd segments black (#1a1a1a) / cream (#f5ead0), even segments green (#1a6b2e) / red (#b01a1a) -->

  <!-- Segment helper: large arc paths for each of 20 slices -->
  <!-- r_outer=41, r_inner_single=29, r_inner_double=35, bull_outer=8, bull=4 -->
  <!-- We'll draw from outermost in: double ring, outer single, triple ring, inner single, bull outer, bull -->

  <!-- Black/cream segments (0,2,4,6,8,10,12,14,16,18 = 0°,36°,...) -->
  <!-- Green/red segments (1,3,5,7,9,11,13,15,17,19 = 18°,54°,...) -->

  <!-- Rather than 20 individual paths, use 10 alternating wedge pairs -->
  <!-- Segment 0 top = -99° (so 20 is at top), step 18° -->
  <!-- Standard dartboard order top clockwise: 20,1,18,4,13,6,10,15,2,17,3,19,7,16,8,11,14,9,12,5 -->
  <!-- Colours: black/gold for 20,18,13,10,2,3,7,8,14,12; green/red for 1,4,6,15,17,19,16,11,9,5 -->
  <!-- Simplified: alternating black-cream vs green-red every 18° -->

  <!-- We'll draw simplified alternating wedges at cx=50 cy=52 -->
  <!-- 10 black/cream pairs and 10 green/red pairs -->

  <!-- Outer single area (r 23..35): alternating black/cream -->
  <path d="M50,52 L50,11 A41,41 0 0,1 62.7,13.5 Z" fill="#1a1a1a"/>
  <path d="M50,52 L62.7,13.5 A41,41 0 0,1 78.5,23.5 Z" fill="#f5ead0"/>
  <path d="M50,52 L78.5,23.5 A41,41 0 0,1 88.5,40.5 Z" fill="#1a6b2e"/>
  <path d="M50,52 L88.5,40.5 A41,41 0 0,1 91,52 Z" fill="#b01a1a"/>
  <path d="M50,52 L91,52 A41,41 0 0,1 88.5,63.5 Z" fill="#1a1a1a"/>
  <path d="M50,52 L88.5,63.5 A41,41 0 0,1 78.5,80.5 Z" fill="#f5ead0"/>
  <path d="M50,52 L78.5,80.5 A41,41 0 0,1 62.7,90.5 Z" fill="#1a6b2e"/>
  <path d="M50,52 L62.7,90.5 A41,41 0 0,1 50,93 Z" fill="#b01a1a"/>
  <path d="M50,52 L50,93 A41,41 0 0,1 37.3,90.5 Z" fill="#1a1a1a"/>
  <path d="M50,52 L37.3,90.5 A41,41 0 0,1 21.5,80.5 Z" fill="#f5ead0"/>
  <path d="M50,52 L21.5,80.5 A41,41 0 0,1 11.5,63.5 Z" fill="#1a6b2e"/>
  <path d="M50,52 L11.5,63.5 A41,41 0 0,1 9,52 Z" fill="#b01a1a"/>
  <path d="M50,52 L9,52 A41,41 0 0,1 11.5,40.5 Z" fill="#1a1a1a"/>
  <path d="M50,52 L11.5,40.5 A41,41 0 0,1 21.5,23.5 Z" fill="#f5ead0"/>
  <path d="M50,52 L21.5,23.5 A41,41 0 0,1 37.3,13.5 Z" fill="#1a6b2e"/>
  <path d="M50,52 L37.3,13.5 A41,41 0 0,1 50,11 Z" fill="#b01a1a"/>

  <!-- Thin wire dividers between segments -->
  <line x1="50" y1="52" x2="50"   y2="11"   stroke="#888" stroke-width="0.4" stroke-opacity="0.6"/>
  <line x1="50" y1="52" x2="62.7" y2="13.5" stroke="#888" stroke-width="0.4" stroke-opacity="0.6"/>
  <line x1="50" y1="52" x2="78.5" y2="23.5" stroke="#888" stroke-width="0.4" stroke-opacity="0.6"/>
  <line x1="50" y1="52" x2="88.5" y2="40.5" stroke="#888" stroke-width="0.4" stroke-opacity="0.6"/>
  <line x1="50" y1="52" x2="91"   y2="52"   stroke="#888" stroke-width="0.4" stroke-opacity="0.6"/>
  <line x1="50" y1="52" x2="88.5" y2="63.5" stroke="#888" stroke-width="0.4" stroke-opacity="0.6"/>
  <line x1="50" y1="52" x2="78.5" y2="80.5" stroke="#888" stroke-width="0.4" stroke-opacity="0.6"/>
  <line x1="50" y1="52" x2="62.7" y2="90.5" stroke="#888" stroke-width="0.4" stroke-opacity="0.6"/>
  <line x1="50" y1="52" x2="50"   y2="93"   stroke="#888" stroke-width="0.4" stroke-opacity="0.6"/>
  <line x1="50" y1="52" x2="37.3" y2="90.5" stroke="#888" stroke-width="0.4" stroke-opacity="0.6"/>
  <line x1="50" y1="52" x2="21.5" y2="80.5" stroke="#888" stroke-width="0.4" stroke-opacity="0.6"/>
  <line x1="50" y1="52" x2="11.5" y2="63.5" stroke="#888" stroke-width="0.4" stroke-opacity="0.6"/>
  <line x1="50" y1="52" x2="9"    y2="52"   stroke="#888" stroke-width="0.4" stroke-opacity="0.6"/>
  <line x1="50" y1="52" x2="11.5" y2="40.5" stroke="#888" stroke-width="0.4" stroke-opacity="0.6"/>
  <line x1="50" y1="52" x2="21.5" y2="23.5" stroke="#888" stroke-width="0.4" stroke-opacity="0.6"/>
  <line x1="50" y1="52" x2="37.3" y2="13.5" stroke="#888" stroke-width="0.4" stroke-opacity="0.6"/>

  <!-- Ring overlays (clip the segment colours into rings) -->
  <!-- Double ring (outer, r 35..41) -->
  <circle cx="50" cy="52" r="41" fill="none" stroke="#888" stroke-width="0.6"/>
  <circle cx="50" cy="52" r="35" fill="#111"/>
  <!-- Redraw double ring wedges -->
  <path d="M50,52 L50,17 A35,35 0 0,1 60.5,18.8 Z" fill="#1a1a1a"/>
  <path d="M50,52 L60.5,18.8 A35,35 0 0,1 72.7,26.3 Z" fill="#f5ead0"/>
  <path d="M50,52 L72.7,26.3 A35,35 0 0,1 80.5,39.8 Z" fill="#1a6b2e"/>
  <path d="M50,52 L80.5,39.8 A35,35 0 0,1 85,52 Z" fill="#b01a1a"/>
  <path d="M50,52 L85,52 A35,35 0 0,1 80.5,64.2 Z" fill="#1a1a1a"/>
  <path d="M50,52 L80.5,64.2 A35,35 0 0,1 72.7,77.7 Z" fill="#f5ead0"/>
  <path d="M50,52 L72.7,77.7 A35,35 0 0,1 60.5,85.2 Z" fill="#1a6b2e"/>
  <path d="M50,52 L60.5,85.2 A35,35 0 0,1 50,87 Z" fill="#b01a1a"/>
  <path d="M50,52 L50,87 A35,35 0 0,1 39.5,85.2 Z" fill="#1a1a1a"/>
  <path d="M50,52 L39.5,85.2 A35,35 0 0,1 27.3,77.7 Z" fill="#f5ead0"/>
  <path d="M50,52 L27.3,77.7 A35,35 0 0,1 19.5,64.2 Z" fill="#1a6b2e"/>
  <path d="M50,52 L19.5,64.2 A35,35 0 0,1 15,52 Z" fill="#b01a1a"/>
  <path d="M50,52 L15,52 A35,35 0 0,1 19.5,39.8 Z" fill="#1a1a1a"/>
  <path d="M50,52 L19.5,39.8 A35,35 0 0,1 27.3,26.3 Z" fill="#f5ead0"/>
  <path d="M50,52 L27.3,26.3 A35,35 0 0,1 39.5,18.8 Z" fill="#1a6b2e"/>
  <path d="M50,52 L39.5,18.8 A35,35 0 0,1 50,17 Z" fill="#b01a1a"/>
  <!-- Mask out inner part of double ring -->
  <circle cx="50" cy="52" r="35" fill="none" stroke="#888" stroke-width="0.5"/>

  <!-- Outer single area (r 29..35): same segments but inner colours -->
  <circle cx="50" cy="52" r="29" fill="#111"/>
  <path d="M50,52 L50,23 A29,29 0 0,1 58.5,24.4 Z" fill="#1a1a1a"/>
  <path d="M50,52 L58.5,24.4 A29,29 0 0,1 67.5,30.5 Z" fill="#f5ead0"/>
  <path d="M50,52 L67.5,30.5 A29,29 0 0,1 73,41.5 Z" fill="#1a6b2e"/>
  <path d="M50,52 L73,41.5 A29,29 0 0,1 79,52 Z" fill="#b01a1a"/>
  <path d="M50,52 L79,52 A29,29 0 0,1 73,62.5 Z" fill="#1a1a1a"/>
  <path d="M50,52 L73,62.5 A29,29 0 0,1 67.5,73.5 Z" fill="#f5ead0"/>
  <path d="M50,52 L67.5,73.5 A29,29 0 0,1 58.5,79.6 Z" fill="#1a6b2e"/>
  <path d="M50,52 L58.5,79.6 A29,29 0 0,1 50,81 Z" fill="#b01a1a"/>
  <path d="M50,52 L50,81 A29,29 0 0,1 41.5,79.6 Z" fill="#1a1a1a"/>
  <path d="M50,52 L41.5,79.6 A29,29 0 0,1 32.5,73.5 Z" fill="#f5ead0"/>
  <path d="M50,52 L32.5,73.5 A29,29 0 0,1 27,62.5 Z" fill="#1a6b2e"/>
  <path d="M50,52 L27,62.5 A29,29 0 0,1 21,52 Z" fill="#b01a1a"/>
  <path d="M50,52 L21,52 A29,29 0 0,1 27,41.5 Z" fill="#1a1a1a"/>
  <path d="M50,52 L27,41.5 A29,29 0 0,1 32.5,30.5 Z" fill="#f5ead0"/>
  <path d="M50,52 L32.5,30.5 A29,29 0 0,1 41.5,24.4 Z" fill="#1a6b2e"/>
  <path d="M50,52 L41.5,24.4 A29,29 0 0,1 50,23 Z" fill="#b01a1a"/>
  <circle cx="50" cy="52" r="29" fill="none" stroke="#888" stroke-width="0.5"/>

  <!-- Triple ring (r 18..22) -->
  <circle cx="50" cy="52" r="22" fill="#111"/>
  <path d="M50,52 L50,30 A22,22 0 0,1 56.7,31 Z" fill="#1a1a1a"/>
  <path d="M50,52 L56.7,31 A22,22 0 0,1 63.5,36.5 Z" fill="#f5ead0"/>
  <path d="M50,52 L63.5,36.5 A22,22 0 0,1 68,44.5 Z" fill="#1a6b2e"/>
  <path d="M50,52 L68,44.5 A22,22 0 0,1 72,52 Z" fill="#b01a1a"/>
  <path d="M50,52 L72,52 A22,22 0 0,1 68,59.5 Z" fill="#1a1a1a"/>
  <path d="M50,52 L68,59.5 A22,22 0 0,1 63.5,67.5 Z" fill="#f5ead0"/>
  <path d="M50,52 L63.5,67.5 A22,22 0 0,1 56.7,73 Z" fill="#1a6b2e"/>
  <path d="M50,52 L56.7,73 A22,22 0 0,1 50,74 Z" fill="#b01a1a"/>
  <path d="M50,52 L50,74 A22,22 0 0,1 43.3,73 Z" fill="#1a1a1a"/>
  <path d="M50,52 L43.3,73 A22,22 0 0,1 36.5,67.5 Z" fill="#f5ead0"/>
  <path d="M50,52 L36.5,67.5 A22,22 0 0,1 32,59.5 Z" fill="#1a6b2e"/>
  <path d="M50,52 L32,59.5 A22,22 0 0,1 28,52 Z" fill="#b01a1a"/>
  <path d="M50,52 L28,52 A22,22 0 0,1 32,44.5 Z" fill="#1a1a1a"/>
  <path d="M50,52 L32,44.5 A22,22 0 0,1 36.5,36.5 Z" fill="#f5ead0"/>
  <path d="M50,52 L36.5,36.5 A22,22 0 0,1 43.3,31 Z" fill="#1a6b2e"/>
  <path d="M50,52 L43.3,31 A22,22 0 0,1 50,30 Z" fill="#b01a1a"/>
  <circle cx="50" cy="52" r="22" fill="none" stroke="#888" stroke-width="0.5"/>

  <!-- Inner single (r 8..18) -->
  <circle cx="50" cy="52" r="18" fill="#111"/>
  <path d="M50,52 L50,34 A18,18 0 0,1 55.5,35 Z" fill="#1a1a1a"/>
  <path d="M50,52 L55.5,35 A18,18 0 0,1 61,40 Z" fill="#f5ead0"/>
  <path d="M50,52 L61,40 A18,18 0 0,1 64,46.5 Z" fill="#1a6b2e"/>
  <path d="M50,52 L64,46.5 A18,18 0 0,1 68,52 Z" fill="#b01a1a"/>
  <path d="M50,52 L68,52 A18,18 0 0,1 64,57.5 Z" fill="#1a1a1a"/>
  <path d="M50,52 L64,57.5 A18,18 0 0,1 61,64 Z" fill="#f5ead0"/>
  <path d="M50,52 L61,64 A18,18 0 0,1 55.5,69 Z" fill="#1a6b2e"/>
  <path d="M50,52 L55.5,69 A18,18 0 0,1 50,70 Z" fill="#b01a1a"/>
  <path d="M50,52 L50,70 A18,18 0 0,1 44.5,69 Z" fill="#1a1a1a"/>
  <path d="M50,52 L44.5,69 A18,18 0 0,1 39,64 Z" fill="#f5ead0"/>
  <path d="M50,52 L39,64 A18,18 0 0,1 36,57.5 Z" fill="#1a6b2e"/>
  <path d="M50,52 L36,57.5 A18,18 0 0,1 32,52 Z" fill="#b01a1a"/>
  <path d="M50,52 L32,52 A18,18 0 0,1 36,46.5 Z" fill="#1a1a1a"/>
  <path d="M50,52 L36,46.5 A18,18 0 0,1 39,40 Z" fill="#f5ead0"/>
  <path d="M50,52 L39,40 A18,18 0 0,1 44.5,35 Z" fill="#1a6b2e"/>
  <path d="M50,52 L44.5,35 A18,18 0 0,1 50,34 Z" fill="#b01a1a"/>
  <circle cx="50" cy="52" r="18" fill="none" stroke="#888" stroke-width="0.5"/>

  <!-- Bull outer (green) -->
  <circle cx="50" cy="52" r="8" fill="#1a6b2e"/>
  <!-- Bull (red) -->
  <circle cx="50" cy="52" r="4" fill="#b01a1a"/>
  <!-- Bull centre dot -->
  <circle cx="50" cy="52" r="1.5" fill="#111"/>

  <!-- Board shading overlay -->
  <circle cx="50" cy="52" r="41" fill="url(#boardShade)"/>

  <!-- Dart — entering from upper-right, tip in bull area -->
  <!-- Shaft (grey) -->
  <line x1="81" y1="18" x2="54" y2="47" stroke="#aaa" stroke-width="2.2" stroke-linecap="round"/>
  <!-- Barrel (dark metal, slightly thicker) -->
  <line x1="70" y1="29" x2="56" y2="44" stroke="#555" stroke-width="3" stroke-linecap="round"/>
  <!-- Tip -->
  <line x1="56" y1="44" x2="51.5" y2="49.5" stroke="#ccc" stroke-width="1.6" stroke-linecap="round"/>
  <!-- Flight (amber/orange) -->
  <polygon points="81,18 76,15 87,10 88,21" fill="#e67e00" stroke="#c05a00" stroke-width="0.5"/>
  <line x1="81" y1="18" x2="87.5" y2="15.5" stroke="#c05a00" stroke-width="0.6"/>
</svg>
